<svg width="65" height="36" viewBox="0 0 65 36" fill="none" xmlns="http://www.w3.org/2000/svg">
<path d="M62.7824 4.98414C63.6021 5.1043 64.364 4.53724 64.4841 3.71758C64.6043 2.89791 64.0372 2.13603 63.2176 2.01586L62.7824 4.98414ZM4.57018 34.9535C4.82062 35.7431 5.66379 36.1803 6.45345 35.9298L19.3218 31.8487C20.1115 31.5983 20.5486 30.7551 20.2982 29.9655C20.0477 29.1758 19.2046 28.7387 18.4149 28.9891L6.97636 32.6167L3.34874 21.1782C3.0983 20.3885 2.25513 19.9514 1.46547 20.2018C0.675801 20.4523 0.238667 21.2954 0.489102 22.0851L4.57018 34.9535ZM63.2176 2.01586C48.1069 -0.199411 37.1218 0.427897 28.0234 5.43009C18.9502 10.4184 12.0309 19.6083 4.66833 33.8096L7.33167 35.1904C14.6318 21.1095 21.2092 12.5999 29.4687 8.05897C37.7029 3.53195 47.8865 2.80036 62.7824 4.98414L63.2176 2.01586Z" fill="#FFF6E5"/>
</svg>
