<svg width="34" height="34" viewBox="0 0 34 34" fill="none" xmlns="http://www.w3.org/2000/svg">
<path fill-rule="evenodd" clip-rule="evenodd" d="M17 0C7.65336 0 0 7.65336 0 17C0 26.3466 7.65336 34 17 34C26.3466 34 34 26.3466 34 17C34 7.65336 26.3466 0 17 0ZM17 1.47826C25.5403 1.47826 32.5217 8.45968 32.5217 17C32.5217 17.0382 32.5203 17.0761 32.5188 17.114C32.5176 17.1448 32.5164 17.1755 32.516 17.2064L32.49 17.9485C32.4683 18.3041 32.433 18.6563 32.3875 19.0052L32.2749 19.7342C31.2839 25.2541 27.354 29.7816 22.1739 31.6267V27.791C22.1739 26.6198 21.7893 25.3283 21.1201 24.2513C20.9169 23.9243 20.6779 23.615 20.4113 23.3375C22.1225 22.9994 23.5283 22.3948 24.6223 21.5488C25.4578 20.9027 26.0891 20.1109 26.5293 19.2232L26.8411 18.4898C26.9131 18.2878 26.9723 18.0801 27.0259 17.8705L27.176 17.1256C27.2313 16.7526 27.2689 16.3739 27.2699 15.9851C27.3414 14.601 26.8766 13.3062 26.1208 12.1624C26.3034 11.5314 26.5176 10.7286 26.5712 9.81802C26.6322 8.78008 26.5426 7.62913 25.7093 6.85139L25.4957 6.65217H25.2041C23.2209 6.65217 21.8635 7.48237 21.0335 8.14054C19.835 7.67662 18.4873 7.3913 17 7.3913C15.5043 7.3913 14.1436 7.68061 12.8958 8.14343C12.0662 7.48495 10.7076 6.65217 8.72232 6.65217H8.43215L8.2185 6.84995C7.40679 7.60367 7.33201 8.72304 7.38264 9.75594C7.42729 10.6668 7.62911 11.4951 7.80851 12.1567C7.03984 13.3227 6.57855 14.6511 6.57855 15.9649C6.57855 16.3356 6.61285 16.697 6.66228 17.0534L6.80231 17.7983C6.86024 18.0345 6.92904 18.266 7.01019 18.4927L7.32345 19.2275C7.76461 20.1132 8.39619 20.9037 9.23047 21.5488C10.3691 22.4293 11.8495 23.0445 13.6566 23.3736C13.4202 23.6165 13.2051 23.8832 13.0142 24.1647L12.9694 24.1257C12.9694 24.1257 12.9659 24.1269 12.9576 24.1305C12.8904 24.1599 12.5415 24.3124 12.047 24.3567C11.5954 24.3971 11.0581 24.3947 10.5467 24.3924C10.4295 24.3918 10.3137 24.3913 10.2006 24.3913C9.29514 24.3913 8.89633 23.9635 8.25892 23.1844C7.90595 22.7087 7.47564 22.3235 7.05783 22.031C6.63002 21.7315 6.26506 21.5202 5.81343 21.4449L5.7528 21.4348H5.69073C5.3458 21.4348 5.01203 21.4598 4.70041 21.8159C4.5446 21.994 4.4372 22.3236 4.50696 22.6027C4.57672 22.8817 4.75324 23.0532 4.91118 23.1585C5.59864 23.6168 5.90094 24.3805 6.22348 25.1953C6.37489 25.5778 6.53075 25.9716 6.73302 26.3503C7.32426 27.5284 8.60027 28.087 9.90464 28.087H11.8261V31.6267C6.65008 29.7831 2.7228 25.2612 1.72801 19.7472L1.61396 19.0167C1.56484 18.6423 1.52736 18.2642 1.50569 17.882L1.48115 17.1415C1.48086 17.1099 1.48096 17.0787 1.48105 17.0473L1.48115 17C1.48115 8.45968 8.45968 1.47826 17 1.47826ZM9.16262 8.22716C10.6539 8.36847 11.7758 9.03437 12.2953 9.49609L12.6417 9.80214L13.069 9.62746C14.2379 9.14615 15.5417 8.86957 17 8.86957C18.4583 8.86957 19.7624 9.14753 20.8429 9.62024L21.276 9.8108L21.6297 9.49609C22.1493 9.03421 23.2731 8.36811 24.7652 8.22716C24.9636 8.55606 25.136 9.0238 25.0943 9.7314C25.0445 10.5782 24.818 11.5006 24.6468 12.0484L24.5357 12.405L24.7565 12.7067C25.4879 13.704 25.8608 14.7833 25.7974 15.9245L25.7959 15.9447V15.9649C25.7959 17.8094 25.1318 19.2856 23.7171 20.3795C22.3026 21.4734 20.0694 22.1739 16.9264 22.1739C13.7834 22.1739 11.5488 21.4734 10.1342 20.3795C8.71956 19.2856 8.05681 17.8094 8.05681 15.9649C8.05681 14.8823 8.44775 13.6914 9.16984 12.7067L9.38638 12.4122L9.28244 12.0614C9.11116 11.4791 8.90122 10.5356 8.85946 9.68376C8.82473 8.97522 8.99242 8.52737 9.16262 8.22716ZM16.0386 23.7258H18.1087C18.7095 23.7258 19.3507 24.2046 19.8641 25.0308C20.3775 25.8571 20.6957 26.9666 20.6957 27.791V32.0713C19.5101 32.3635 18.2727 32.5217 17 32.5217C15.7273 32.5217 14.4899 32.3635 13.3043 32.0713V27.791C13.3043 26.9848 13.6501 25.8779 14.1979 25.0481C14.7458 24.2184 15.4378 23.7258 16.0386 23.7258ZM7.6194 24.5992C8.25932 25.2629 9.03404 25.8696 10.2006 25.8696C10.3129 25.8696 10.4307 25.8704 10.5525 25.8712C11.0555 25.8745 11.6285 25.8784 12.1783 25.8291L12.1819 25.8284L12.1855 25.8277C12.0956 26.0864 12.0284 26.3467 11.9719 26.6087H9.90464C8.99304 26.6087 8.34905 26.2794 8.05248 25.6862L8.04671 25.6761L8.04237 25.6675C7.93147 25.4615 7.7889 25.0675 7.65693 24.7028L7.6194 24.5992Z" fill="#EAE8E1"/>
</svg>
